<?xml version="1.0" encoding="UTF-8"?>
<svg xmlns="http://www.w3.org/2000/svg" width="136" height="136" viewBox="0 0 136 136">
  <g fill="none" fill-rule="evenodd" transform="translate(-25 -28)">
    <g transform="translate(39.19 60.98)">
      <path fill="#2E2E2E" stroke="#F4ECD6" stroke-width="2.407" d="M94.3515293,-0.365217994 C96.968116,-0.365217994 100.365412,0.20984552 103.064048,2.14133639 C105.093443,3.59383231 106.751535,5.79710067 107.411183,9.10535872 C108.853536,16.3390219 107.932855,24.5533966 106.55892,28.3624414 C105.830047,30.3831419 104.741798,31.9680303 103.485018,33.0676416 C102.074826,34.3014796 100.44766,34.9352882 98.8233059,34.9352882 C95.8975003,34.9352882 86.9153431,34.1196178 85.3325777,31.936146 C83.7541255,29.7586244 81.5204431,25.7514569 81.5204431,21.8011928 C81.5204431,21.1117676 81.5098274,20.4279364 81.4992451,19.7432012 C81.4520038,16.6864136 81.4129248,13.6134277 82.233903,9.98782607 C82.7757351,7.59498852 84.6195612,4.97219186 86.9408699,2.97509666 C89.2741113,0.967735423 92.0542322,-0.365217994 94.3515293,-0.365217994 Z"/>
      <path fill="#F4ECD6" d="M94.8231146,15.5748729 L98.9359686,17.914167 C104.643045,21.1536636 101.760461,28.5691666 94.6530206,28.5691666 C88.7778297,28.5691666 86.4539387,23.5301453 89.2315616,19.6230334 L89.4296017,19.7770647 C87.2901082,23.6401676 90.2083396,27.3369169 94.1471379,27.3369169 C98.1739541,27.3369169 99.4942217,23.4421275 95.7895508,21.3453226 L92.2017235,19.2478573 C90.2083396,18.0730392 89.2621478,16.5767359 89.5041968,14.5083167 C89.7902548,12.0438172 91.5946205,10.5695184 94.631236,10.5695184 C95.4236165,10.5695184 97.0686698,10.6678783 98.3455886,10.795284 L100.058196,10.795284 L99.5833395,14.3756298 L99.3714364,14.3756298 C99.3617544,12.7699644 98.0414868,11.6697414 95.8630453,11.6697414 C94.0586795,11.6697414 92.9584565,12.4398975 92.8704387,13.518116 C92.7824209,14.5743301 93.794626,14.9924148 94.8231146,15.5748729 Z"/>
      <path fill="#2E2E2E" stroke="#F4ECD6" stroke-width="2.407" d="M60.6616081,2.27736702 C63.9699335,0.0231567136 69.2028226,-1.8242598 71.8223446,-0.953080136 C73.3379471,-0.449033174 75.9593568,1.49532101 78.1109129,4.54245609 C79.633776,6.69920658 80.9245515,9.39427488 81.4231217,12.4477684 C82.5974395,19.6398792 80.7364868,26.8475703 78.7498902,29.4510947 C78.4410164,29.8558877 78.129681,30.2919912 77.8115659,30.7372153 C75.9296904,33.371031 73.7741474,35.9819035 71.0106219,35.9819035 C67.8526324,35.9819035 60.0606444,35.7409358 57.2806832,32.873057 C54.5010589,30.0055258 53.6928322,28.1276943 52.7482429,24.9103526 C51.67586,21.272692 50.6717238,17.3374 52.3761659,14.2518811 C52.5690797,13.902653 52.7859336,13.5014439 53.0233315,13.062273 C54.8646234,9.65600072 57.9253566,4.14178046 60.6616081,2.27736702 Z"/>
      <path fill="#F4ECD6" d="M59.2222021,10.6259196 L67.3548141,10.6254453 C70.1877374,10.6254453 73.4269234,11.6736126 73.4269234,15.05257 C73.4269234,17.836609 71.3056719,19.7511694 68.8609763,19.583396 C71.0159248,20.7290949 72.2660368,22.7682394 74.342438,25.3472482 C75.6940407,27.0935614 77.0677853,28.5473575 78.6731674,29.5481584 L76.8376353,31.7094986 C74.8155477,31.029873 72.7550116,29.5701153 70.9955163,26.9108376 C69.7696089,25.1322517 67.6274747,21.8541481 66.7010439,20.5356927 C66.2423372,19.8040875 65.8246837,19.228153 65.390182,19.1149594 L65.390182,18.8923691 C65.4820181,18.8895215 65.8256328,18.9044717 66.117278,18.885725 C67.2520611,18.8539264 69.1250935,18.327351 69.5455945,16.1441634 C69.5878344,15.9120811 69.6540418,15.5475837 69.6303115,14.9941929 C69.5446451,12.8617882 68.1148945,11.6752732 66.3994313,11.6719509 L64.600912,11.6719509 L64.600912,25.5098009 C64.6137262,26.3180549 65.2746152,27.0019623 66.1284313,27.0017251 L66.4212631,27.0017251 L66.42506,27.2390281 L59.2105741,27.2390281 L59.2105741,27.0017251 L59.5133726,27.0017251 C60.3218641,27.0017251 61.0083815,26.3605323 61.0311628,25.5202423 L61.0311628,12.3551465 C61.0155007,11.5286201 60.3415603,10.866782 59.5136102,10.8641717 L59.2222021,10.8641717 L59.2222021,10.6259196 Z"/>
      <path fill="#2E2E2E" stroke="#F4ECD6" stroke-width="2.407" d="M39.0390441,1.0514669 C41.2864739,0.223374011 44.7488673,-0.284575162 47.6674546,0.263162031 C50.1269142,0.724733792 52.1645449,1.92567201 53.0939608,4.05126823 C55.1313248,8.71076816 53.7314423,11.677174 52.2558074,14.0576735 C51.0624289,15.9828358 50.9987274,19.0209047 51.3734705,21.9774193 C51.4821726,22.8350188 51.8156193,23.8154309 52.1684153,24.8850975 C53.2326098,28.1117031 54.388156,31.9814471 52.2861819,35.7839786 C51.5368354,37.1395679 49.956042,38.0079708 47.784088,38.2890055 C45.7309916,38.5546609 43.1571774,38.3125945 40.6092615,37.7120258 C37.8955461,37.0723765 35.2150254,36.0303858 33.2385165,34.8174343 C31.1045808,33.5078725 29.8527512,31.9606663 29.6941532,30.5403262 C29.5155025,28.9404015 29.3135141,27.7652902 29.1019265,26.6070042 C28.6205287,23.9936907 28.2116724,21.7728838 27.8454041,17.2288771 C27.5716672,13.8328356 28.7833786,10.677171 30.6110092,8.05225582 C33.1177236,4.45201364 36.7671108,1.88858846 39.0390441,1.0514669 Z"/>
      <path fill="#F4ECD6" d="M40.1374778,16.3419129 L44.2503319,18.681207 C49.9574086,21.9207036 47.0748244,29.3362066 39.9673838,29.3362066 C34.092193,29.3362066 31.7683019,24.2971853 34.5459248,20.3900734 L34.743965,20.5441047 C32.6044714,24.4072076 35.5227028,28.1039569 39.4615011,28.1039569 C43.4883173,28.1039569 44.8085849,24.2091675 41.103914,22.1123626 L37.5160867,20.0148973 C35.5227028,18.8400792 34.576511,17.3437759 34.8185601,15.2753567 C35.1046181,12.8108572 36.9089838,11.3365584 39.9455993,11.3365584 C40.7379797,11.3365584 42.383033,11.4349183 43.6599518,11.562324 L45.372559,11.562324 L44.8977027,15.1426698 L44.6857996,15.1426698 C44.6761176,13.5370044 43.35585,12.4367814 41.1774085,12.4367814 C39.3730428,12.4367814 38.2728198,13.2069375 38.1848019,14.285156 C38.0967841,15.3413701 39.1089893,15.7594548 40.1374778,16.3419129 Z"/>
      <path fill="#2E2E2E" stroke="#F4ECD6" stroke-width="2.407" d="M12.3846203,0.582023692 C15.8834203,0.182974434 18.63307,0.696365807 20.7630596,1.61102171 C23.8513387,2.93718439 25.6657338,5.12094161 26.5729987,6.7813589 C27.9073158,9.22333928 28.0599566,13.1902285 28.065982,15.5589218 L28.0660703,16.2823161 C28.0660703,16.7665535 28.1514543,17.6369409 28.2538125,18.7214555 C28.5891217,22.2741501 29.0504488,27.896286 27.9827519,30.6144395 C26.4541882,34.5058722 24.5977422,37.3207288 20.2425935,38.2395977 C18.0011253,38.7125128 13.875565,38.2510243 10.1594499,37.0939069 C6.84678215,36.0624142 3.93053345,34.4609359 2.75776772,32.6672452 C0.347180287,28.9803639 -1.203482,22.297857 -1.203482,16.7088137 C-1.203482,13.5241565 0.325300197,9.22654957 3.14175051,5.86798409 C5.44611269,3.12007435 8.59014548,1.0147956 12.3846203,0.582023692 Z"/>
      <path fill="#F4ECD6" d="M12.2017587,18.2766212 L11.9553087,18.2766212 C10.6218092,16.0474816 11.3611591,13.1106196 14.380171,12.5150322 C17.7072454,11.8578324 23.3345193,14.1991069 23.3345193,19.8879933 C23.3345193,24.5089299 19.596695,27.4663293 14.0104961,27.4663293 C8.38322217,27.4663293 4.6248604,24.4473174 4.6248604,19.9290683 C4.6248604,16.1707065 7.1920474,13.2954571 10.8976277,12.6620808 L11.0208526,12.8674557 C9.88245938,14.0553444 9.16364702,16.5403815 9.16364702,19.2307934 C9.16364702,23.5642051 11.0325592,26.4394545 14.0310336,26.4394545 C16.865208,26.4394545 18.7957326,23.892805 18.7957326,19.8879933 C18.7957326,16.109094 17.0911205,13.2133071 14.4417835,13.541907 C12.2648089,13.8088945 11.5254591,16.0474816 12.2017587,18.2766212 Z"/>
    </g>
    <g transform="translate(30.575 94.712)">
      <path fill="#513535" stroke="#F4ECD6" stroke-width="2.406" d="M126.685809,-2.01703029 L119.354973,14.3575176 L126.053492,27.857868 C122.662987,29.9637995 117.042525,30.916605 109.155401,30.5902107 L100.01966,28.4507946 L100.01966,-1.39575959 C112.253146,0.486096692 121.146021,0.314280238 126.685809,-2.01703029 Z"/>
      <path fill="#513535" stroke="#F4ECD6" stroke-width="2.406" d="M26.3855105,-0.153828994 L19.0886453,16.2377287 L25.9483845,29.3406032 C21.2843867,31.149559 15.617213,32.0655172 8.94256368,32.0655172 L-1.2032,32.0655172 L-1.2032,3.07160396 C8.65299456,3.47769142 17.8495158,2.40489293 26.3855105,-0.153828994 Z" transform="matrix(-1 0 0 1 24.244 0)"/>
      <path fill="#513535" stroke="#F4ECD6" stroke-width="2.406" d="M108.50048,-0.248308593 L108.50048,22.2350536 L100.355697,22.2350536 L100.08749,5.12698726 L108.50048,-0.248308593 Z" transform="matrix(-1 0 0 1 208.598 0)"/>
      <path fill="#513535" stroke="#F4ECD6" stroke-width="2.406" d="M25.4473348,3.57301779 L25.4473348,25.2857047 L16.1768244,25.2857047 L15.8446567,6.59311019 L25.4473348,3.57301779 Z"/>
      <path fill="#513535" stroke="#F4ECD6" stroke-width="2.406" d="M65.9855973,4.46331391 C83.2396255,2.39285441 97.4103361,2.71271081 108.50048,5.39106247 L108.50048,36.4219625 C95.3159608,34.5940883 81.2375186,34.5359005 66.2652233,36.2426147 C63.6686078,36.5386068 61.1665371,36.8314999 58.7529637,37.1140319 C40.7057208,39.2266351 27.5637658,40.7381327 16.8415643,38.7244612 C16.5143486,38.6630088 16.1862241,38.5976794 15.8581945,38.5280756 C15.8589408,38.2012657 15.8596928,37.8716379 15.8604505,37.5391921 C15.8880385,25.4352098 15.9061632,17.0667457 15.9148244,12.4338584 L15.9168223,11.3366179 L15.9186814,10.2324562 L15.9197817,9.48985732 L15.9220489,7.03487845 C28.8558881,8.98207129 38.6005256,7.78212473 59.7435507,5.21760271 C61.7213099,4.9777124 63.7980711,4.72581403 65.9855973,4.46331391 Z"/>
      <path fill="#F4ECD6" fill-rule="nonzero" d="M49.1217239,22.6908271 L44.2738953,15.4179914 L44.0785971,15.4293016 L41.1577464,23.2870021 L38.3412791,17.8001031 C37.9740907,17.0016505 38.4754147,16.4864721 39.0113584,16.4369139 L39.1951641,16.4199176 L39.1760021,16.2126916 L31.6667278,16.9070666 L31.6860638,17.1161745 L31.8533502,17.1007057 C32.4806739,17.0426977 33.2766358,17.3145435 33.7542231,18.1209247 L39.0435978,28.9942596 C38.5297213,30.4775566 37.2086896,34.2363999 34.4129013,35.0010738 L34.4322372,35.2101817 C37.7164602,35.7500764 39.7082266,31.7275945 40.2867158,30.1881296 L43.4221558,21.8845766 L49.0827343,30.5230987 L49.2801322,30.5048455 C49.1595916,29.2012669 49.3759469,28.1518779 49.3759469,28.1518779 L52.0809817,15.1412792 C52.5919069,12.684127 53.9185233,10.1511271 57.3104127,9.58377474 L57.2910767,9.37466682 C52.7837737,9.20094411 50.938431,12.5649667 50.4491033,15.2921773 L49.1217239,22.6908271 Z"/>
      <path fill="#F4ECD6" fill-rule="nonzero" d="M63.6529932 28.6800232L63.3886889 28.7067272C62.6574119 28.7806115 62.0048199 28.254497 61.9177137 27.528144L60.7462244 15.9332243C60.6937867 15.2094897 61.2259333 14.5706408 61.9528226 14.4971998L62.2171268 14.4704959 62.1993601 14.2612218 54.7035617 15.0185576 54.7280145 15.2271562 54.9923188 15.2004522C55.7206708 15.1268634 56.370918 15.6485713 56.4622197 16.3704901L57.6332658 27.9610222C57.6930014 28.6901406 57.1588355 29.3361589 56.4275584 29.4100432L56.1632542 29.4367472 56.1810209 29.6460212 63.6774461 28.8886221 63.6529932 28.6800232zM71.2836372 15.1290155C71.2567253 14.403883 71.8110448 13.7841751 72.5400698 13.7363839L72.8051507 13.7190065 72.7947666 13.5092365 65.2769431 14.0020669 65.294033 14.2113973 65.5626765 14.1937864C66.2894964 14.1444561 66.9209632 14.6887449 66.9867791 15.4134317L67.7488282 27.0380205C67.782844 27.7687906 67.2262539 28.3955923 66.4928281 28.4436719L66.2277472 28.4610493 66.2381314 28.6708193 73.7565835 28.1779477 73.7394936 27.9686173 73.4748315 27.9859672C72.7408046 28.0345073 72.1071497 27.4857321 72.0456829 26.7567615L71.2836372 15.1290155zM88.9548862 30.6751065C86.0792056 30.6321258 84.1863393 29.4303727 80.8360252 25.3317634L75.5892755 18.9143521 78.8969356 14.3365582C79.3965597 13.6850803 80.2075749 13.2154324 81.131973 13.1527289L81.2237561 13.1467121 81.2113653 12.9576977 76.1591094 13.2888979 76.171253 13.4741403 76.3736786 13.4608703C76.9480558 13.423217 77.2468132 13.9259709 76.9452684 14.4144126L72.382613 21.5721069 77.4076888 27.6610152C80.9934814 31.996939 84.4596733 33.8952656 89.0119207 30.9030738L88.9548862 30.6751065z"/>
      <path fill="#F4ECD6" fill-rule="nonzero" d="M92.2850028,26.9150042 L92.0195176,26.924354 C91.2849729,26.9502229 90.6682105,26.3825286 90.6288257,25.6520322 L90.2186551,14.0053026 C90.2136933,13.2796878 90.7865073,12.6770337 91.5166445,12.65132 L91.7821298,12.6419702 L91.7780967,12.4319821 L84.2488046,12.6971462 L84.2595537,12.9068978 L84.525039,12.8975481 C85.2566455,12.8717826 85.8713566,13.4349263 85.915218,14.1612725 L86.3252335,25.803595 C86.3371253,26.5350597 85.7618271,27.1447356 85.0272824,27.1706045 L84.7617972,27.1799543 L84.7658303,27.3899424 L92.295752,27.1247562 L92.2850028,26.9150042 Z"/>
    </g>
  </g>
</svg>
